<svg width="70" height="70" viewBox="0 0 70 70" fill="none" xmlns="http://www.w3.org/2000/svg">
<path d="M44.2575 1.49801C42.4195 0.958532 40.5315 0.606735 38.6225 0.448008C34.3988 -0.0487522 30.1187 0.284145 26.0225 1.42801L25.7775 1.49801C18.4338 3.51453 11.956 7.88775 7.34022 13.9451C2.72448 20.0024 0.226497 27.4083 0.230473 35.0239C0.23445 42.6394 2.74016 50.0427 7.36223 56.0952C11.9843 62.1477 18.4667 66.5142 25.8125 68.523C28.5017 69.2806 31.2789 69.6807 34.0725 69.713C34.3842 69.7698 34.7009 69.7933 35.0175 69.783C38.1293 69.789 41.2269 69.365 44.2225 68.523C51.562 66.5072 58.037 62.138 62.6531 56.0864C67.2693 50.0347 69.7715 42.6351 69.7754 35.0238C69.7794 27.4126 67.285 20.0104 62.6751 13.9539C58.0653 7.89741 51.5949 3.52148 44.2575 1.49801ZM43.3125 4.85801C47.8441 6.11244 52.0349 8.37171 55.5735 11.468C59.1121 14.5643 61.9077 18.418 63.7525 22.743H48.8425C47.0629 15.8716 43.7883 9.47782 39.2525 4.01801C40.6242 4.20041 41.9811 4.48113 43.3125 4.85801ZM35.0175 4.54301C39.7992 9.72238 43.2891 15.9586 45.2025 22.743H24.7625C26.6679 15.9422 30.1857 9.7013 35.0175 4.55001V4.54301ZM46.0775 26.243C47.1975 32.0344 47.1975 37.9867 46.0775 43.778H23.9575C23.3651 40.8993 23.0719 37.967 23.0825 35.028C23.0737 32.0775 23.3669 29.1338 23.9575 26.243H46.0775ZM26.4775 4.92801L26.7225 4.85801C28.0571 4.50243 29.4133 4.23353 30.7825 4.05301C26.2222 9.49103 22.9338 15.8788 21.1575 22.75H6.30003C8.13751 18.473 10.9001 14.6565 14.389 11.5749C17.8779 8.49326 22.0064 6.22321 26.4775 4.92801ZM3.72753 35.028C3.7281 32.0522 4.1644 29.0924 5.02253 26.243H20.3875C19.8547 29.1411 19.5852 32.0814 19.5825 35.028C19.5836 37.9631 19.8531 40.892 20.3875 43.778H5.02253C4.16188 40.9411 3.72549 37.9926 3.72753 35.028ZM26.7225 65.163C22.1862 63.9186 17.9907 61.6631 14.4506 58.5655C10.9106 55.468 8.11806 51.609 6.28253 47.278H21.1225C22.9173 54.1646 26.2298 60.5625 30.8175 66.003C29.4337 65.8242 28.065 65.5434 26.7225 65.163ZM24.7625 47.278H45.2025C43.3119 54.0822 39.8195 60.3349 35.0175 65.513C30.2157 60.3236 26.7027 54.0768 24.7625 47.278ZM43.3125 65.163C41.9629 65.5134 40.5961 65.7938 39.2175 66.003C43.7637 60.545 47.0501 54.1515 48.8425 47.278H63.7525C61.9118 51.6056 59.1175 55.4617 55.5783 58.5585C52.0391 61.6554 47.8462 63.913 43.3125 65.163ZM49.6125 43.778C50.6975 37.9834 50.6975 32.0377 49.6125 26.243H64.9775C65.8526 29.0886 66.2893 32.0509 66.2725 35.028C66.2811 37.9905 65.8566 40.9383 65.0125 43.778H49.6125Z" fill="#FF4F00"/>
</svg>
