<svg width="16" height="16" viewBox="0 0 16 16" fill="none" xmlns="http://www.w3.org/2000/svg">
<path d="M7.99998 1.44147C10.1361 1.44147 10.3891 1.4496 11.2327 1.48809C12.0126 1.52369 12.4362 1.65401 12.7182 1.76354C13.0916 1.90867 13.3581 2.08205 13.638 2.36198C13.9179 2.64191 14.0913 2.90844 14.2364 3.28183C14.346 3.56376 14.4763 3.98735 14.5119 4.76731C14.5504 5.61091 14.5585 5.86391 14.5585 8.00002C14.5585 10.1361 14.5504 10.3891 14.5119 11.2327C14.4763 12.0127 14.346 12.4363 14.2364 12.7182C14.0913 13.0916 13.9179 13.3581 13.638 13.638C13.3581 13.918 13.0916 14.0914 12.7182 14.2365C12.4362 14.346 12.0126 14.4763 11.2327 14.5119C10.3892 14.5504 10.1362 14.5586 7.99998 14.5586C5.86375 14.5586 5.61075 14.5504 4.76731 14.5119C3.98732 14.4763 3.56373 14.346 3.28183 14.2365C2.90841 14.0914 2.64188 13.918 2.36195 13.638C2.08202 13.3581 1.90863 13.0916 1.76354 12.7182C1.65398 12.4363 1.52366 12.0127 1.48806 11.2327C1.44957 10.3891 1.44144 10.1361 1.44144 8.00002C1.44144 5.86391 1.44957 5.61091 1.48806 4.76735C1.52366 3.98735 1.65398 3.56376 1.76354 3.28183C1.90863 2.90844 2.08202 2.64191 2.36195 2.36198C2.64188 2.08205 2.90841 1.90867 3.28183 1.76354C3.56373 1.65401 3.98732 1.52369 4.76728 1.48809C5.61088 1.4496 5.86388 1.44147 7.99998 1.44147ZM7.99998 0C5.8273 0 5.5549 0.00920926 4.70161 0.0481422C3.85007 0.0870116 3.26855 0.222229 2.75966 0.420006C2.23359 0.624451 1.78745 0.897997 1.34271 1.34274C0.897966 1.78748 0.624419 2.23363 0.419974 2.7597C0.222197 3.26859 0.0869798 3.8501 0.0481104 4.70164C0.0091775 5.5549 0 5.82733 0 8.00002C0 10.1727 0.0091775 10.4451 0.0481104 11.2984C0.0869798 12.1499 0.222197 12.7314 0.419974 13.2403C0.624419 13.7664 0.897966 14.2125 1.34271 14.6573C1.78745 15.102 2.23359 15.3756 2.75966 15.58C3.26855 15.7778 3.85007 15.913 4.70161 15.9519C5.5549 15.9908 5.8273 16 7.99998 16C10.1727 16 10.4451 15.9908 11.2984 15.9519C12.1499 15.913 12.7314 15.7778 13.2403 15.58C13.7664 15.3756 14.2125 15.102 14.6573 14.6573C15.102 14.2125 15.3755 13.7664 15.58 13.2403C15.7778 12.7314 15.913 12.1499 15.9519 11.2984C15.9908 10.4451 16 10.1727 16 8.00002C16 5.82733 15.9908 5.5549 15.9519 4.70164C15.913 3.8501 15.7778 3.26859 15.58 2.7597C15.3755 2.23363 15.102 1.78748 14.6573 1.34274C14.2125 0.897997 13.7664 0.624451 13.2403 0.420006C12.7314 0.222229 12.1499 0.0870116 11.2984 0.0481422C10.4451 0.00920926 10.1727 0 7.99998 0ZM7.99998 3.89189C5.73114 3.89189 3.89186 5.73117 3.89186 8.00002C3.89186 10.2689 5.73114 12.1081 7.99998 12.1081C10.2688 12.1081 12.1081 10.2689 12.1081 8.00002C12.1081 5.73117 10.2688 3.89189 7.99998 3.89189ZM7.99998 10.6667C6.52723 10.6667 5.3333 9.47277 5.3333 8.00002C5.3333 6.52727 6.52723 5.33333 7.99998 5.33333C9.47273 5.33333 10.6667 6.52727 10.6667 8.00002C10.6667 9.47277 9.47273 10.6667 7.99998 10.6667ZM13.2304 3.72959C13.2304 4.25979 12.8006 4.68961 12.2704 4.68961C11.7402 4.68961 11.3104 4.25979 11.3104 3.72959C11.3104 3.19939 11.7402 2.7696 12.2704 2.7696C12.8006 2.7696 13.2304 3.19939 13.2304 3.72959Z" fill="white"/>
</svg>
