<?xml version="1.0" encoding="UTF-8"?>
<svg width="203px" height="164px" viewBox="0 0 203 164" version="1.1" xmlns="http://www.w3.org/2000/svg" xmlns:xlink="http://www.w3.org/1999/xlink">
    <title>Shape</title>
    <g id="Page-1" stroke="none" stroke-width="1" fill="none" fill-rule="evenodd" fill-opacity="0.85">
        <g id="Small" transform="translate(-155.000000, -174.000000)" fill="#FFFFFF" fill-rule="nonzero">
            <g id="Group" transform="translate(-0.339869, -9.000000)">
                <g id="camera.on.rectangle.fill" transform="translate(155.339869, 183.000000)">
                    <path d="M0,103.488485 C0,119.614361 8.14817628,127.755456 24.6013757,127.755456 L28.8321503,127.755456 L28.8321503,73.3499219 C28.8321503,51.2745375 41.8379272,38.4362815 64.1672292,38.4362815 L75.7627478,38.4362815 C77.4863789,38.4362815 77.8781351,38.2797281 79.2100902,36.8706679 L84.7727397,31.2344268 C91.0409996,24.7370221 97.622151,21.8405848 106.475376,21.8405848 L136.169583,21.8405848 C145.179254,21.8405848 151.995475,24.8152587 158.106487,31.4692167 L161.632533,35.3050542 C162.259119,35.9312676 162.964328,36.7924313 163.434467,37.0272212 L163.434467,24.2673621 C163.434467,8.14132544 155.207828,0 138.911796,0 L24.6013757,0 C8.14817628,0 0,8.14132544 0,24.2673621 L0,103.488485 Z M64.1672292,164 L178.477329,164 C194.851984,164 203,155.858905 203,139.733029 L203,73.3499219 C203,57.2238853 194.851984,49.160867 178.477329,49.160867 L166.803266,49.160867 C160.927324,49.160867 159.12539,48.4563368 155.756591,44.7771328 L150.114917,38.6711516 C146.119533,34.2874174 142.280595,32.5651703 136.169583,32.5651703 L106.475376,32.5651703 C100.28574,32.5651703 96.6818719,34.365654 92.4506159,38.6711516 L86.4960498,44.7771328 C83.0494295,48.1432301 81.6390109,49.160867 75.7627478,49.160867 L64.1672292,49.160867 C47.71411,49.160867 39.5658534,57.2238853 39.5658534,73.3499219 L39.5658534,139.733029 C39.5658534,155.858905 47.71411,164 64.1672292,164 Z M121.361791,140.828822 C100.364364,140.828822 83.440945,123.919779 83.440945,102.862432 C83.440945,81.9605963 100.364364,64.9737969 121.361791,64.9737969 C142.280595,64.9737969 159.281836,81.9605963 159.281836,102.862432 C159.281836,123.919779 142.280595,140.828822 121.361791,140.828822 Z M121.361791,128.852051 C135.620819,128.852051 147.216258,117.187905 147.216258,102.862432 C147.216258,88.6147147 135.620819,77.029206 121.361791,77.029206 C107.101961,77.029206 95.427899,88.6147147 95.427899,102.862432 C95.427899,117.187905 107.101961,128.852051 121.361791,128.852051 Z M169.466855,84.8575947 C164.609816,84.8575947 160.692254,80.9433603 160.692254,76.0898058 C160.692254,71.2363315 164.609816,67.2439406 169.466855,67.2439406 C174.324697,67.2439406 178.320883,71.2363315 178.320883,76.0898058 C178.320883,80.9433603 174.324697,84.8575947 169.466855,84.8575947 Z" id="Shape"></path>
                </g>
            </g>
        </g>
    </g>
</svg>